<?xml version="1.0" encoding="UTF-8"?>
<svg version="1.1" xmlns="http://www.w3.org/2000/svg" width="154" height="147">
<path d="M0 0 C1.26085419 0.0001133 1.26085419 0.0001133 2.54718018 0.00022888 C3.89426056 0.00797081 3.89426056 0.00797081 5.26855469 0.01586914 C6.19512878 0.01728409 7.12170288 0.01869904 8.07635498 0.02015686 C11.03107961 0.02574715 13.98572802 0.03829789 16.94042969 0.05102539 C18.94563693 0.05604165 20.95084535 0.06060433 22.95605469 0.06469727 C27.86754232 0.07571341 32.77897309 0.09297139 37.69042969 0.11352539 C37.69042969 4.40352539 37.69042969 8.69352539 37.69042969 13.11352539 C33.73042969 13.11352539 29.77042969 13.11352539 25.69042969 13.11352539 C25.53417114 15.15721313 25.53417114 15.15721313 25.37475586 17.2421875 C24.69755864 23.96500416 23.22634146 30.47124072 21.74121094 37.05493164 C21.44291504 38.38992075 21.14483922 39.72495905 20.8469696 41.06004333 C20.22315777 43.84875632 19.59465848 46.63636366 18.96313477 49.42333984 C18.32445832 52.24431598 17.69333408 55.06680041 17.06958008 57.89111328 C8.04043075 98.76352432 8.04043075 98.76352432 2.69042969 104.11352539 C-3.57016742 103.88586731 -3.57016742 103.88586731 -6.03588867 101.31030273 C-10.46463173 93.67184575 -4.03209525 77.75431652 -2.24707031 69.48852539 C-1.86571707 67.70347458 -1.48485345 65.91831909 -1.10449219 64.13305664 C-0.17849663 59.79198452 0.75412914 55.45238603 1.69042969 51.11352539 C0.81507568 51.38777344 -0.06027832 51.66202148 -0.9621582 51.94458008 C-2.11965576 52.30455078 -3.27715332 52.66452148 -4.46972656 53.03540039 C-5.61320557 53.39214844 -6.75668457 53.74889648 -7.93481445 54.11645508 C-14.34715762 56.01097938 -20.58677655 57.46735664 -27.30957031 57.11352539 C-27.02082031 57.6355957 -26.73207031 58.15766602 -26.43457031 58.69555664 C-22.69399998 66.11175685 -21.85155909 73.36701759 -24.43457031 81.36352539 C-28.04501388 89.57518542 -34.46356449 94.45236369 -42.44628906 98.08618164 C-53.41294819 102.08929151 -66.62860331 101.30619155 -77.50097656 97.43774414 C-84.88338663 93.95702507 -89.6608192 88.31706836 -93.30957031 81.11352539 C-94.89568097 76.35519341 -94.81635139 72.52717788 -93.12207031 67.80102539 C-91.30957031 65.11352539 -91.30957031 65.11352539 -88.93457031 63.55102539 C-86.30957031 63.11352539 -86.30957031 63.11352539 -83.75097656 64.18383789 C-80.52624839 66.73266304 -80.33439429 68.55384434 -79.62207031 72.55102539 C-78.73281368 78.12490258 -78.73281368 78.12490258 -76.30957031 83.11352539 C-68.35552404 87.35990866 -57.86746225 87.39561607 -49.37207031 84.92602539 C-45.46477444 83.42976508 -42.94797139 81.41152674 -40.30957031 78.11352539 C-38.77729527 73.51670026 -38.58893966 69.69204967 -40.62207031 65.23852539 C-42.20828316 62.84380567 -42.20828316 62.84380567 -45.30957031 62.11352539 C-46.36144531 62.42290039 -47.41332031 62.73227539 -48.49707031 63.05102539 C-54.08654102 64.60874674 -58.25369086 65.16086021 -63.62207031 62.42602539 C-66.32674728 60.09874521 -67.91644879 58.39145838 -69.30957031 55.11352539 C-69.1607793 52.58407824 -68.55868941 51.44983617 -67.05957031 49.42602539 C-62.37170782 45.91012852 -55.82212199 47.13158914 -50.28027344 47.50415039 C-46.44891941 47.62036208 -43.95214563 47.24286217 -40.98144531 44.88696289 C-38.64079772 42.45734331 -37.02605719 40.46468045 -35.49707031 37.48852539 C-35.09875 36.73313477 -34.70042969 35.97774414 -34.29003906 35.19946289 C-32.26277233 30.88647312 -31.65487105 26.82925775 -32.30957031 22.11352539 C-33.64290365 19.44685872 -33.64290365 19.44685872 -36.30957031 18.11352539 C-41.73174836 17.39056832 -45.7344671 18.07609201 -50.54785156 20.69555664 C-53.65630855 23.19748544 -54.84562472 26.49915124 -56.30957031 30.11352539 C-57.30957031 31.11352539 -57.30957031 31.11352539 -60.12207031 31.36352539 C-63.68161574 31.08434536 -64.93484094 30.75211358 -67.30957031 28.11352539 C-68.263257 24.9799834 -68.48425525 22.87049345 -67.74707031 19.67602539 C-63.05554438 11.31287047 -56.67009323 7.12372148 -47.80957031 3.80102539 C-40.34972231 2.3356981 -33.14883649 2.44963279 -26.30957031 6.11352539 C-21.48033452 10.29267175 -18.63962707 14.93576968 -17.97363281 21.34790039 C-17.88849706 29.01011825 -18.62556031 34.41129032 -22.30957031 41.11352539 C-22.63957031 42.10352539 -22.96957031 43.09352539 -23.30957031 44.11352539 C-14.11564353 41.13814455 -5.08547963 38.18805471 3.69042969 34.11352539 C4.35042969 34.11352539 5.01042969 34.11352539 5.69042969 34.11352539 C5.89539063 33.0165332 6.10035156 31.91954102 6.31152344 30.78930664 C6.58364262 29.33487652 6.85577894 27.88044961 7.12792969 26.42602539 C7.32999023 25.34417969 7.32999023 25.34417969 7.53613281 24.24047852 C8.23141813 20.52663741 8.93817671 16.81636285 9.69042969 13.11352539 C8.50964844 13.14833008 7.32886719 13.18313477 6.11230469 13.21899414 C4.55502727 13.24713771 2.99773444 13.27443726 1.44042969 13.30102539 C0.663125 13.32616211 -0.11417969 13.35129883 -0.91503906 13.37719727 C-4.40615465 13.42195516 -6.69697672 13.43549319 -9.82910156 11.78930664 C-11.30957031 10.11352539 -11.30957031 10.11352539 -11.74707031 7.11352539 C-11.30957031 4.11352539 -11.30957031 4.11352539 -10.05957031 2.30102539 C-6.92042947 0.1708941 -3.71760147 -0.01119759 0 0 Z " fill="#0F75E8" transform="translate(116.3095703125,28.886474609375)"/>
<path d="M0 0 C2.83288439 2.58654662 3.87476318 4.50920014 4.203125 8.41796875 C4.3548047 17.37971081 2.90915687 23.72943522 -3.27734375 30.40234375 C-13.95401284 40.30428855 -26.25317076 40.43058514 -40 40 C-40 39.67 -40 39.34 -40 39 C-38.74445312 38.90203125 -37.48890625 38.8040625 -36.1953125 38.703125 C-24.00267995 37.65470229 -14.35731976 36.42158778 -5 28 C-4.34 28 -3.68 28 -3 28 C-2.80083984 27.12214844 -2.80083984 27.12214844 -2.59765625 26.2265625 C-2 24 -2 24 -0.4375 20.375 C2.08344117 13.78366114 1.43292141 6.80637671 0 0 Z " fill="#49494A" transform="translate(89,89)"/>
<path d="M0 0 C0 0.33 0 0.66 0 1 C-0.65226562 1.10957031 -1.30453125 1.21914063 -1.9765625 1.33203125 C-9.39163263 2.60847328 -9.39163263 2.60847328 -16 6 C-17.2739579 8.03177851 -18.28374873 10.0587629 -19.23828125 12.2578125 C-20 14 -20 14 -21 15 C-22.99958364 15.04080783 -25.00045254 15.04254356 -27 15 C-27 14.67 -27 14.34 -27 14 C-26.22269531 13.93554688 -25.44539063 13.87109375 -24.64453125 13.8046875 C-21.83136194 13.27246266 -21.83136194 13.27246266 -20.69921875 10.8203125 C-20.19841797 9.48613281 -20.19841797 9.48613281 -19.6875 8.125 C-18.03003931 4.51059973 -17.00753987 2.3928973 -13.25 0.875 C-8.87858937 -0.3179613 -4.49534249 -0.28095891 0 0 Z " fill="#343434" transform="translate(80,45)"/>
<path d="M0 0 C0.66 0 1.32 0 2 0 C1 3 1 3 -0.890625 4.1328125 C-1.66921875 4.46023437 -2.4478125 4.78765625 -3.25 5.125 C-4.01828125 5.45757812 -4.7865625 5.79015625 -5.578125 6.1328125 C-11.02093627 8.08169008 -16.09977821 8.12475095 -21.8125 8.0625 C-22.60076172 8.05798828 -23.38902344 8.05347656 -24.20117188 8.04882812 C-26.13414761 8.03711312 -28.06708393 8.01917998 -30 8 C-30 7.67 -30 7.34 -30 7 C-28.74445312 6.90203125 -27.48890625 6.8040625 -26.1953125 6.703125 C-12.12002438 6.12965936 -12.12002438 6.12965936 0 0 Z " fill="#2C2C2D" transform="translate(79,121)"/>
</svg>
